<svg xmlns="http://www.w3.org/2000/svg" viewBox="0 0 600 400">
  <defs>
    <linearGradient id="aboutBg" x1="0%" y1="0%" x2="100%" y2="100%">
      <stop offset="0%" style="stop-color:#FFF8E1"/>
      <stop offset="100%" style="stop-color:#FFECB3"/>
    </linearGradient>
  </defs>
  <rect width="600" height="400" fill="url(#aboutBg)"/>
  
  <!-- Workshop scene -->
  <rect x="50" y="280" width="500" height="120" fill="#8D6E63" rx="5"/>
  <rect x="60" y="270" width="480" height="20" fill="#6D4C41"/>
  
  <!-- Vases with flowers -->
  <g transform="translate(120, 200)">
    <rect x="-20" y="50" width="40" height="60" fill="#90CAF9" rx="5"/>
    <path d="M-15 50 Q0 20 15 50" fill="#81C784"/>
    <circle cx="-5" cy="25" r="12" fill="#E91E63"/>
    <circle cx="10" cy="30" r="10" fill="#F48FB1"/>
  </g>
  
  <g transform="translate(250, 190)">
    <rect x="-25" y="55" width="50" height="70" fill="#CE93D8" rx="5"/>
    <path d="M-20 55 Q0 15 20 55" fill="#A5D6A7"/>
    <circle cx="0" cy="20" r="18" fill="#FFEB3B"/>
    <circle cx="-12" cy="35" r="12" fill="#FFF"/>
  </g>
  
  <g transform="translate(380, 195)">
    <ellipse cx="0" cy="80" rx="35" ry="15" fill="#BCAAA4"/>
    <path d="M-35 80 Q-40 40 -25 10 L25 10 Q40 40 35 80" fill="#D7CCC8"/>
    <circle cx="-8" cy="0" r="14" fill="#C83E4D"/>
    <circle cx="12" cy="-5" r="12" fill="#E57373"/>
  </g>
  
  <g transform="translate(480, 205)">
    <rect x="-18" y="50" width="36" height="55" fill="#80DEEA" rx="3"/>
    <circle cx="0" cy="30" r="15" fill="#FF7043"/>
    <circle cx="-10" cy="40" r="10" fill="#FFAB91"/>
  </g>
  
  <!-- Florist figure -->
  <g transform="translate(300, 150)">
    <circle cx="0" cy="-60" r="25" fill="#FFCC80"/>
    <ellipse cx="0" cy="-30" rx="35" ry="45" fill="#7E57C2"/>
    <rect x="-40" y="-10" width="80" height="100" fill="#7E57C2" rx="10"/>
    <rect x="-45" y="0" width="20" height="50" fill="#FFCC80" rx="5"/>
    <rect x="25" y="0" width="20" height="50" fill="#FFCC80" rx="5"/>
    <ellipse cx="0" cy="-65" rx="25" ry="15" fill="#5D4037"/>
    <circle cx="-8" cy="-65" r="3" fill="#333"/>
    <circle cx="8" cy="-65" r="3" fill="#333"/>
    <path d="M-5 -55 Q0 -50 5 -55" stroke="#333" stroke-width="2" fill="none"/>
  </g>
  
  <!-- Decorative elements -->
  <circle cx="80" cy="80" r="20" fill="#F48FB1" opacity="0.5"/>
  <circle cx="520" cy="60" r="15" fill="#81C784" opacity="0.5"/>
  <circle cx="550" cy="120" r="10" fill="#FFEB3B" opacity="0.5"/>
  
  <text x="300" y="380" text-anchor="middle" font-family="Georgia, serif" font-size="16" fill="#5D4037">Наша мастерская</text>
</svg>

