<svg xmlns="http://www.w3.org/2000/svg" viewBox="0 0 400 400">
  <defs>
    <linearGradient id="bg1" x1="0%" y1="0%" x2="100%" y2="100%">
      <stop offset="0%" style="stop-color:#ffebee"/>
      <stop offset="100%" style="stop-color:#ffcdd2"/>
    </linearGradient>
  </defs>
  <rect width="400" height="400" fill="url(#bg1)"/>
  <g transform="translate(200, 180)">
    <path d="M-20 50 Q-25 100 -15 130" stroke="#66BB6A" stroke-width="4" fill="none"/>
    <path d="M0 50 Q0 100 5 130" stroke="#66BB6A" stroke-width="4" fill="none"/>
    <path d="M20 50 Q25 100 15 130" stroke="#66BB6A" stroke-width="4" fill="none"/>
    <path d="M-50 70 Q-60 110 -35 130 L35 130 Q60 110 50 70 Q25 80 0 75 Q-25 80 -50 70" fill="#FFCDD2" stroke="#EF9A9A" stroke-width="2"/>
    <g transform="translate(0, -30)">
      <circle cx="0" cy="0" r="12" fill="#E53935"/>
      <ellipse cx="0" cy="-18" rx="10" ry="15" fill="#EF5350"/>
      <ellipse cx="15" cy="-6" rx="10" ry="15" fill="#E57373" transform="rotate(72)"/>
      <ellipse cx="9" cy="14" rx="10" ry="15" fill="#EF5350" transform="rotate(144)"/>
      <ellipse cx="-9" cy="14" rx="10" ry="15" fill="#EF9A9A" transform="rotate(216)"/>
      <ellipse cx="-15" cy="-6" rx="10" ry="15" fill="#E57373" transform="rotate(288)"/>
    </g>
    <g transform="translate(-35, 0)">
      <circle cx="0" cy="0" r="10" fill="#E53935"/>
      <ellipse cx="0" cy="-14" rx="8" ry="12" fill="#EF5350"/>
      <ellipse cx="11" cy="-4" rx="8" ry="12" fill="#E57373" transform="rotate(72)"/>
      <ellipse cx="7" cy="11" rx="8" ry="12" fill="#EF5350" transform="rotate(144)"/>
      <ellipse cx="-7" cy="11" rx="8" ry="12" fill="#EF9A9A" transform="rotate(216)"/>
      <ellipse cx="-11" cy="-4" rx="8" ry="12" fill="#E57373" transform="rotate(288)"/>
    </g>
    <g transform="translate(35, 5)">
      <circle cx="0" cy="0" r="9" fill="#E53935"/>
      <ellipse cx="0" cy="-12" rx="7" ry="10" fill="#EF5350"/>
      <ellipse cx="10" cy="-4" rx="7" ry="10" fill="#E57373" transform="rotate(72)"/>
      <ellipse cx="6" cy="10" rx="7" ry="10" fill="#EF5350" transform="rotate(144)"/>
      <ellipse cx="-6" cy="10" rx="7" ry="10" fill="#EF9A9A" transform="rotate(216)"/>
      <ellipse cx="-10" cy="-4" rx="7" ry="10" fill="#E57373" transform="rotate(288)"/>
    </g>
    <ellipse cx="-50" cy="30" rx="12" ry="6" fill="#81C784" transform="rotate(-30 -50 30)"/>
    <ellipse cx="50" cy="35" rx="12" ry="6" fill="#A5D6A7" transform="rotate(30 50 35)"/>
  </g>
  <text x="200" y="370" text-anchor="middle" font-family="Georgia, serif" font-size="14" fill="#C83E4D">Букет из 25 красных роз</text>
</svg>

