<svg xmlns="http://www.w3.org/2000/svg" viewBox="0 0 400 400">
  <defs>
    <linearGradient id="bg2" x1="0%" y1="0%" x2="100%" y2="100%">
      <stop offset="0%" style="stop-color:#fff3e0"/>
      <stop offset="100%" style="stop-color:#ffe0b2"/>
    </linearGradient>
  </defs>
  <rect width="400" height="400" fill="url(#bg2)"/>
  <g transform="translate(200, 200)">
    <!-- Tulip stems -->
    <path d="M-30 40 L-30 120" stroke="#4CAF50" stroke-width="5" fill="none"/>
    <path d="M0 30 L0 120" stroke="#4CAF50" stroke-width="5" fill="none"/>
    <path d="M30 45 L30 120" stroke="#4CAF50" stroke-width="5" fill="none"/>
    <path d="M-60 60 L-60 120" stroke="#4CAF50" stroke-width="4" fill="none"/>
    <path d="M60 55 L60 120" stroke="#4CAF50" stroke-width="4" fill="none"/>
    
    <!-- Wrapper -->
    <path d="M-80 70 Q-90 110 -60 130 L60 130 Q90 110 80 70 Q40 85 0 80 Q-40 85 -80 70" fill="#FFCC80" stroke="#FFB74D" stroke-width="2"/>
    
    <!-- Tulips -->
    <g transform="translate(-60, -20)">
      <path d="M0 0 Q-12 -30 0 -50 Q12 -30 0 0" fill="#FF7043"/>
      <path d="M-8 -10 Q0 -35 8 -10" fill="#FF8A65"/>
    </g>
    <g transform="translate(-30, -40)">
      <path d="M0 0 Q-15 -35 0 -60 Q15 -35 0 0" fill="#FFEB3B"/>
      <path d="M-10 -15 Q0 -45 10 -15" fill="#FFF176"/>
    </g>
    <g transform="translate(0, -50)">
      <path d="M0 0 Q-15 -35 0 -60 Q15 -35 0 0" fill="#F44336"/>
      <path d="M-10 -15 Q0 -45 10 -15" fill="#E57373"/>
    </g>
    <g transform="translate(30, -35)">
      <path d="M0 0 Q-12 -30 0 -50 Q12 -30 0 0" fill="#E91E63"/>
      <path d="M-8 -12 Q0 -38 8 -12" fill="#F48FB1"/>
    </g>
    <g transform="translate(60, -25)">
      <path d="M0 0 Q-12 -30 0 -50 Q12 -30 0 0" fill="#FF9800"/>
      <path d="M-8 -10 Q0 -35 8 -10" fill="#FFB74D"/>
    </g>
    
    <!-- Leaves -->
    <path d="M-40 80 Q-60 60 -50 40" stroke="#66BB6A" stroke-width="8" fill="none" stroke-linecap="round"/>
    <path d="M40 85 Q60 65 50 45" stroke="#81C784" stroke-width="8" fill="none" stroke-linecap="round"/>
  </g>
  <text x="200" y="370" text-anchor="middle" font-family="Georgia, serif" font-size="14" fill="#FF7043">Букет тюльпанов</text>
</svg>

